#!OML:ASF Y:\EmotionMaleHayes\Project 1\Capture day 1\Session 1\Male1.ASF
:FULLY-SPECIFIED
:DEGREES
881
root 43.0888 16.3395 -14.6443 369.988 249.813 356.524
lowerback 11.8301 -0.384514 -8.6646
upperback 5.93251 -1.75338 -0.289498
thorax -0.135218 -1.20323 4.77526
lowerneck -19.2651 9.79779 13.3129
upperneck 23.9923 13.4645 -14.5927
head 13.292 5.30137 -5.4921
rclavicle -1.2921e-014 3.4191e-014
rhumerus -61.6503 15.5136 -95.1906
rradius 46.4276
rwrist -18.6848
rhand -20.7869 -34.3934
rfingers 7.12502
rthumb 5.58008 -64.2999
lclavicle -1.2921e-014 3.4191e-014
lhumerus -15.7526 -37.6849 82.4528
lradius 83.3461
lwrist 20.0291
lhand -25.7908 -21.2552
lfingers 7.12502
lthumb 0.74784 8.72325
rfemur -37.5215 0.0383373 4.10391
rtibia 37.5098
rfoot -15.7853 8.63469
rtoes -21.7641
lfemur 15.1075 -1.76271 -38.7369
ltibia 4.20542
lfoot -10.9359 -9.18164
ltoes 27.6449
882
root 42.9349 16.301 -14.743 372.58 250.392 353.981
lowerback 11.6618 -0.460649 -9.12981
upperback 5.97886 -1.88689 -0.442154
thorax 0.040176 -1.28782 4.88306
lowerneck -19.1426 9.62179 12.9512
upperneck 23.7005 13.3069 -14.5914
head 13.0896 5.21267 -5.45335
rclavicle 6.40087e-014 -1.19271e-014
rhumerus -62.8294 14.9801 -95.3618
rradius 46.5919
rwrist -18.9858
rhand -20.6997 -34.4126
rfingers 7.12502
rthumb 5.66426 -64.3169
lclavicle 6.40087e-014 -1.19271e-014
lhumerus -15.1522 -37.2481 82.1651
lradius 85.1674
lwrist 18.8367
lhand -26.224 -21.7108
lfingers 7.12502
lthumb 0.329384 8.26865
rfemur -37.865 -0.565259 3.66704
rtibia 36.8764
rfoot -15.8989 8.67799
rtoes -21.8796
lfemur 15.5466 -1.78233 -39.3745
ltibia 4.4395
lfoot -10.7702 -9.67379
ltoes 28.1036
883
root 42.774 16.2626 -14.8506 374.687 250.754 351.848
lowerback 11.6203 -0.417949 -9.38934
upperback 5.98444 -1.85923 -0.673965
thorax 0.0671442 -1.27894 4.77972
lowerneck -19.4556 9.73637 13.1581
upperneck 23.8115 13.4135 -14.645
head 13.2403 5.25897 -5.48451
rclavicle -1.51076e-014 -5.00937e-014
rhumerus -63.8817 14.1603 -95.569
rradius 46.6066
rwrist -19.2152
rhand -20.6815 -34.3253
rfingers 7.12502
rthumb 5.68187 -64.2291
lclavicle -1.51076e-014 -5.00937e-014
lhumerus -14.8573 -36.6802 82.4897
lradius 86.2569
lwrist 17.8615
lhand -27.1098 -22.872
lfingers 7.12502
lthumb -0.526184 7.10709
rfemur -38.0963 -0.744106 3.48061
rtibia 36.599
rfoot -16.0313 8.14936
rtoes -21.964
lfemur 16.1049 -1.70146 -39.7699
ltibia 4.718
lfoot -10.6383 -10.1139
ltoes 28.0728
884
root 42.6222 16.2335 -14.9531 375.757 251.084 350.764
lowerback 11.5636 -0.39327 -9.50135
upperback 6.08684 -1.83179 -0.680314
thorax 0.207291 -1.28018 4.82864
lowerneck -19.4357 9.65937 12.7479
upperneck 23.488 13.3463 -14.4297
head 13.0372 5.23088 -5.32674
rclavicle -9.42239e-014 -3.97569e-015
rhumerus -64.6599 13.7493 -95.6277
rradius 46.5991
rwrist -19.5858
rhand -20.7275 -34.3417
rfingers 7.12502
rthumb 5.6374 -64.2467
lclavicle -9.42239e-014 -3.97569e-015
lhumerus -14.9431 -36.6205 82.6143
lradius 88.3471
lwrist 18.4108
lhand -28.5508 -24.1901
lfingers 7.12502
lthumb -1.91788 5.781
rfemur -38.2236 -0.633271 3.73079
rtibia 36.5011
rfoot -15.9799 7.26725
rtoes -21.6461
lfemur 16.5586 -1.93046 -39.9081
ltibia 5.25144
lfoot -10.4795 -10.0963
ltoes 28.5721
885
root 42.4536 16.2075 -15.0485 378.326 251.417 348.016
lowerback 11.692 -0.388683 -9.8423
upperback 6.1084 -1.88531 -0.904749
thorax 0.175508 -1.31383 4.7916
lowerneck -19.8241 9.74552 12.9473
upperneck 23.6977 13.4616 -14.6511
head 13.2613 5.25087 -5.42642
rclavicle -4.19436e-014 2.0276e-014
rhumerus -65.305 13.158 -95.6693
rradius 46.298
rwrist -19.8537
rhand -20.8466 -34.3563
rfingers 7.12502
rthumb 5.5225 -64.2643
lclavicle -4.19436e-014 2.0276e-014
lhumerus -14.7029 -37.3923 82.1577
lradius 89.7117
lwrist 19.5793
lhand -30.0185 -25.9197
lfingers 7.12502
lthumb -3.3353 4.03396
rfemur -37.8517 -0.821037 3.27096
rtibia 36.4214
rfoot -15.7968 6.55563
rtoes -21.3334
lfemur 17.0074 -2.09097 -40.6456
ltibia 5.89037
lfoot -10.1734 -10.3607
ltoes 28.2887
886
root 42.2735 16.1839 -15.1419 381.156 251.722 344.985
lowerback 11.6883 -0.388908 -10.2439
upperback 6.13306 -1.93293 -1.07251
thorax 0.223816 -1.3499 4.84281
lowerneck -19.9529 9.5743 12.6406
upperneck 23.7535 13.2974 -14.62
head 13.254 5.14642 -5.39669
rclavicle 3.63776e-014 2.98177e-014
rhumerus -65.6213 12.5815 -95.4736
rradius 45.5435
rwrist -19.8711
rhand -20.91 -34.5145
rfingers 7.12502
rthumb 5.46125 -64.4241
lclavicle 3.63776e-014 2.98177e-014
lhumerus -14.6633 -37.1767 82.0763
lradius 90.9224
lwrist 19.7903
lhand -29.9065 -26.642
lfingers 7.12502
lthumb -3.22718 3.31332
rfemur -37.1283 -0.703613 2.48573
rtibia 36.5309
rfoot -14.8516 6.16544
rtoes -22.9687
lfemur 17.4386 -2.41842 -41.5146
ltibia 6.73429
lfoot -9.99288 -10.598
ltoes 26.4332
